<?xml version="1.0" encoding="UTF-8"?>
<svg version="1.1" xmlns="http://www.w3.org/2000/svg" width="1102" height="664">
<path d="M0 0 C363.66 0 727.32 0 1102 0 C1102 219.12 1102 438.24 1102 664 C738.34 664 374.68 664 0 664 C0 444.88 0 225.76 0 0 Z " fill="#FEFEFE" transform="translate(0,0)"/>
<path d="M0 0 C1.41260655 0.45544451 2.82388714 0.91500255 4.23461914 1.3762207 C5.02067032 1.63168167 5.8067215 1.88714264 6.61659241 2.15034485 C10.39981691 3.49901731 13.90288479 5.29277281 17.4375 7.1875 C18.17685791 7.58259766 18.91621582 7.97769531 19.67797852 8.38476562 C25.67759803 11.67150799 30.88859763 15.44668836 36 20 C37.22396484 20.99386719 37.22396484 20.99386719 38.47265625 22.0078125 C55.86096695 36.57421806 67.3515897 59.31037381 69.84106445 81.76538086 C70.17970225 86.52659701 70.14263696 91.29170244 70.125 96.0625 C70.12886719 97.11244141 70.13273437 98.16238281 70.13671875 99.24414062 C70.12997291 104.60371122 69.94345556 109.72114148 69 115 C69.69480469 115.25523437 70.38960937 115.51046875 71.10546875 115.7734375 C74.35317449 117.14965828 77.27982916 118.82539313 80.3125 120.625 C81.38113281 121.25664062 82.44976563 121.88828125 83.55078125 122.5390625 C84.35902344 123.02117187 85.16726563 123.50328125 86 124 C84.34136495 128.32504836 81.128959 131.09418825 77.875 134.25 C77.31167969 134.80429688 76.74835938 135.35859375 76.16796875 135.9296875 C74.78313972 137.29104485 73.39216796 138.64614859 72 140 C78.93 142.475 78.93 142.475 86 145 C84.85629709 149.57481165 83.40428758 151.01220888 80.1875 154.375 C76.65313548 158.08164521 73.72625846 161.69136775 71 166 C71.65226562 166.19335938 72.30453125 166.38671875 72.9765625 166.5859375 C77.6771398 167.98640448 82.35840891 169.41208726 87 171 C86.00041101 176.12289356 83.8340509 178.86011358 79.97460938 182.12915039 C73.03135271 186.49603941 64.77492215 188.49243907 57 190.9375 C41.26584343 195.93276226 26.09783256 201.17222965 12.6015625 210.96875 C11 212 11 212 9 212 C9 212.66 9 213.32 9 214 C7.93523437 214.48984375 6.87046875 214.9796875 5.7734375 215.484375 C-0.29447683 218.52233651 -5.78952496 222.41748431 -11.375 226.25 C-12.4475 226.97574219 -13.52 227.70148438 -14.625 228.44921875 C-20.55848376 232.49871314 -26.28759467 236.6963326 -31.84741211 241.24633789 C-33.92756487 242.94098882 -36.05170268 244.56402454 -38.1875 246.1875 C-42.60867543 250.04484132 -44.90620244 254.89865581 -47.45703125 260.109375 C-48.78949327 262.60563296 -49.87390941 264.18675758 -52 266 C-55.48747623 265.05695796 -56.75446501 264.39251809 -58.703125 261.27734375 C-59.21359375 260.17519531 -59.7240625 259.07304687 -60.25 257.9375 C-69.93833983 238.77331846 -93.02444479 227.77570222 -110.56933594 216.57470703 C-112.93786956 215.04025124 -115.27150861 213.46321409 -117.6015625 211.87109375 C-132.26060801 201.99499854 -148.10086353 195.89200261 -164.83203125 190.40234375 C-165.4878418 190.18487488 -166.14365234 189.96740601 -166.81933594 189.74334717 C-170.0152285 188.68407107 -173.21248976 187.6511069 -176.43115234 186.66162109 C-182.53263015 184.68086376 -187.06267466 183.00236857 -191.05786133 177.8503418 C-192 176 -192 176 -193 171 C-188.38 169.35 -183.76 167.7 -179 166 C-180.93339798 161.16650506 -182.49000373 159.10565017 -186 155.4375 C-191.46229698 149.71320331 -191.46229698 149.71320331 -193 146 C-191.06532058 145.16013916 -189.12714871 144.32831973 -187.1875 143.5 C-186.10855469 143.0359375 -185.02960938 142.571875 -183.91796875 142.09375 C-181 141 -181 141 -178 141 C-182.60136502 135.46398272 -187.46398272 130.60136502 -193 126 C-190.74999584 123.3840971 -189.30900171 122.09966506 -185.984375 121.02734375 C-182.11842008 119.72468503 -179.1424278 118.54028348 -177 115 C-175.5411553 107.28329279 -176.56073026 99.16557652 -176.92675781 91.37109375 C-177.45347656 67.1279856 -166.61615031 44.53319704 -150.33203125 27.15234375 C-145.34985762 21.99384058 -140.20852124 16.68776825 -134 13 C-133.34 13 -132.68 13 -132 13 C-132 12.34 -132 11.68 -132 11 C-128.96435258 9.50824493 -125.92054938 8.03392012 -122.875 6.5625 C-122.0190625 6.14162109 -121.163125 5.72074219 -120.28125 5.28710938 C-119.44335938 4.88427734 -118.60546875 4.48144531 -117.7421875 4.06640625 C-116.59532471 3.5086853 -116.59532471 3.5086853 -115.42529297 2.93969727 C-112.63802162 1.85974887 -109.94725237 1.45657987 -107 1 C-107.00444122 1.82224564 -107.00888245 2.64449127 -107.01345825 3.49165344 C-107.05392199 11.32942634 -107.08417773 19.167163 -107.10362434 27.00501728 C-107.11395883 31.03228101 -107.12792298 35.05945679 -107.15087891 39.08666992 C-107.41044348 60.21688066 -107.41044348 60.21688066 -106.1796875 81.29296875 C-106.1100882 82.0036702 -106.04048889 82.71437164 -105.96878052 83.4466095 C-105.39463889 88.1025133 -103.98347717 91.80251143 -102 96 C-101.40316406 95.6596875 -100.80632812 95.319375 -100.19140625 94.96875 C-80.0371435 83.70871613 -60.87863998 74.9364383 -37.4375 80.5 C-29.13108655 82.98573182 -21.58964394 86.85885037 -14 91 C-12.51113281 91.80630859 -12.51113281 91.80630859 -10.9921875 92.62890625 C-8.98325697 93.73413292 -6.98525596 94.85296322 -5 96 C1.14112558 84.27603299 0.28190639 70.1157959 0.1953125 57.2265625 C0.19157148 55.56505506 0.18872968 53.90354537 0.18673706 52.24203491 C0.17918617 47.91847387 0.15961367 43.59505225 0.1373291 39.27154541 C0.11668401 34.83990361 0.10769589 30.40823877 0.09765625 25.9765625 C0.07635759 17.31764513 0.04232814 8.65884002 0 0 Z " fill="#6F56C2" transform="translate(592,48)"/>
<path d="M0 0 C1.1982692 0.00067978 1.1982692 0.00067978 2.42074585 0.00137329 C3.25832428 -0.00198532 4.09590271 -0.00534393 4.9588623 -0.00880432 C7.74792948 -0.01835581 10.53693674 -0.02026046 13.32601929 -0.02133179 C15.26642888 -0.02454483 17.20683823 -0.02790894 19.14724731 -0.03141785 C23.22963013 -0.03742193 27.31199174 -0.03925678 31.39437866 -0.03866577 C36.59570047 -0.03856484 41.79688362 -0.0521391 46.99817276 -0.06943798 C51.01509203 -0.08063316 55.03197878 -0.08258258 59.04891205 -0.08205605 C60.96402203 -0.08322786 62.87913308 -0.08760424 64.7942276 -0.09538841 C84.70493236 -0.16864846 104.03232717 0.91937649 119.43539429 15.14663696 C120.19336304 15.79116821 120.95133179 16.43569946 121.73226929 17.09976196 C132.69071652 27.02855644 137.75080598 40.88116596 138.78305054 55.40054321 C139.49016941 70.85351449 135.58197287 85.13275272 125.69711304 97.28335571 C120.53917866 102.88980612 114.30261714 106.89106465 107.43539429 110.14663696 C106.44539429 110.14663696 105.45539429 110.14663696 104.43539429 110.14663696 C108.54910988 117.92655097 113.30848456 125.20371634 118.16210938 132.53286743 C119.57792127 134.67313228 120.98734277 136.81748047 122.39511108 138.96304321 C126.30624372 144.91948195 130.22325385 150.86770124 134.25961304 156.74038696 C134.77958862 157.50802368 135.29956421 158.2756604 135.83529663 159.06655884 C136.73822331 160.39613631 137.6552807 161.71629625 138.59017944 163.02359009 C141.70574226 167.64976797 142.24889591 170.74542891 141.43539429 176.14663696 C137.74974946 179.96500232 135.03832898 180.67617552 129.81430054 180.78335571 C127.20906108 180.82184371 124.6034152 180.83797049 121.99789429 180.83413696 C120.68756226 180.87474243 119.37723022 180.9153479 118.02719116 180.95718384 C108.7553013 180.99021347 108.7553013 180.99021347 105.36459351 178.82315063 C103.76142269 177.02182647 102.60878431 175.25084726 101.43539429 173.14663696 C101.02490845 172.5170105 100.61442261 171.88738403 100.1914978 171.23867798 C98.88243365 169.21719796 97.65598515 167.16012465 96.43539429 165.08413696 C95.48154567 163.49316424 94.52572113 161.90337495 93.56820679 160.31460571 C93.06450562 159.47848755 92.56080444 158.64236938 92.0418396 157.78091431 C89.19496012 153.11255115 86.25254476 148.50533979 83.31039429 143.89663696 C82.76125366 143.03546265 82.21211304 142.17428833 81.64633179 141.28701782 C80.5270976 139.53441983 79.38666982 137.79520443 78.22714233 136.06900024 C76.85085508 133.82425866 75.814521 131.79958773 74.77841187 129.40786743 C72.90603207 125.41436912 71.05307598 121.80429573 67.43539429 119.14663696 C60.41409643 116.75726067 52.67162734 117.50896067 45.37289429 117.77163696 C43.34235472 117.79366755 41.31173583 117.80935389 39.28109741 117.81851196 C34.32859309 117.85458911 29.38505145 117.97702155 24.43539429 118.14663696 C24.44205612 118.82457809 24.44871796 119.50251923 24.45558167 120.20100403 C24.52195582 127.25745908 24.56720375 134.31382543 24.60018921 141.37051392 C24.61527486 144.0040141 24.63574595 146.63748917 24.66171265 149.27090454 C24.69810447 153.056368 24.71512319 156.84149923 24.72836304 160.62710571 C24.74384689 161.80435715 24.75933075 162.98160858 24.77528381 164.1945343 C24.77551041 165.295298 24.775737 166.39606171 24.77597046 167.53018188 C24.78263229 168.49614792 24.78929413 169.46211395 24.79615784 170.45735168 C24.23956951 174.60639834 22.35225576 177.22977549 19.43539429 180.14663696 C15.1849491 180.66049003 10.90083502 180.56347058 6.62289429 180.58413696 C4.83915405 180.6334436 4.83915405 180.6334436 3.01937866 180.68374634 C1.87146851 180.69083618 0.72355835 180.69792603 -0.45913696 180.70523071 C-2.03465332 180.7254126 -2.03465332 180.7254126 -3.64199829 180.7460022 C-7.70326745 179.91312142 -9.00796344 178.38499976 -11.56460571 175.14663696 C-12.05936555 172.16014718 -12.25034739 169.74522021 -12.21157837 166.76382446 C-12.22472076 165.51656586 -12.22472076 165.51656586 -12.23812866 164.24411011 C-12.2600881 161.50275076 -12.24558282 158.76301194 -12.22866821 156.02163696 C-12.23203736 154.11261689 -12.23689079 152.20359892 -12.24316406 150.29458618 C-12.25053069 146.29649402 -12.23983665 142.29896094 -12.21646118 138.30093384 C-12.1879735 133.17925516 -12.2043786 128.05888649 -12.2343235 122.93725586 C-12.25240215 118.99606477 -12.24663585 115.05518364 -12.23368454 111.11398315 C-12.2303521 109.22575729 -12.23443193 107.33750317 -12.24608231 105.4493103 C-12.25880055 102.80859991 -12.23940194 100.17000266 -12.21157837 97.52944946 C-12.22169952 96.75111755 -12.23182068 95.97278564 -12.24224854 95.17086792 C-12.16266596 91.0883953 -11.74477577 89.36196145 -9.08666992 86.18521118 C-8.25438873 85.51248169 -7.42210754 84.8397522 -6.56460571 84.14663696 C-6.06960571 83.65163696 -6.06960571 83.65163696 -5.56460571 83.14663696 C-2.87888522 83.04272929 -0.21804363 83.00302369 2.46835327 83.00479126 C3.31075058 83.00131683 4.15314789 82.99784241 5.02107239 82.9942627 C6.85827913 82.98688959 8.69549488 82.98155253 10.53271294 82.97797203 C13.44664118 82.97081851 16.36039985 82.95515697 19.27427673 82.93663025 C27.56225142 82.88413248 35.85013807 82.836251 44.13827515 82.82070923 C49.20355987 82.810587 54.26842524 82.78114611 59.33354378 82.73938942 C61.25946939 82.72712513 63.18545441 82.72194976 65.11141777 82.72418785 C77.81803475 82.73531173 88.09591273 82.52387065 98.06039429 73.70913696 C102.56540437 68.58980732 101.90685873 62.45939533 101.75180054 56.01382446 C101.16437658 48.83419828 97.88000124 44.81344292 92.43539429 40.14663696 C85.79927229 36.19320258 79.41256623 36.00111157 71.84725952 36.03652954 C70.10461933 36.03598724 68.36197915 36.03540028 66.61933899 36.03477478 C65.70274946 36.03620295 64.78615993 36.03763111 63.84179497 36.03910255 C58.96994446 36.04263635 54.09820746 36.01681931 49.22640991 35.99624634 C43.03531155 35.9718883 36.84455157 35.9562563 30.65341187 35.97158813 C25.64061443 35.98323747 20.62865104 35.96589354 15.61598396 35.92914391 C13.70824031 35.92052471 11.80041689 35.9226146 9.89269829 35.93564796 C7.22557827 35.95251665 4.56109954 35.93237792 1.89413452 35.90371704 C1.10802292 35.917509 0.32191132 35.93130096 -0.48802185 35.94551086 C-3.42881656 35.8842291 -5.82608085 35.73878098 -8.17447281 33.8558569 C-11.04218825 30.55415 -12.20144459 28.0512872 -12.22866821 23.70523071 C-12.23511353 22.70942993 -12.24155884 21.71362915 -12.24819946 20.68765259 C-12.22886353 19.66349243 -12.20952759 18.63933228 -12.18960571 17.58413696 C-12.20894165 16.55610962 -12.22827759 15.52808228 -12.24819946 14.46890259 C-12.19404332 6.11260983 -12.19404332 6.11260983 -9.08804321 2.99429321 C-8.25530884 2.38456665 -7.42257446 1.77484009 -6.56460571 1.14663696 C-4.78022819 -0.63774056 -2.37688039 0.0140206 0 0 Z " fill="#6043B8" transform="translate(180.56460571289063,387.8533630371094)"/>
<path d="M0 0 C1.175625 -0.00257813 2.35125 -0.00515625 3.5625 -0.0078125 C13.20894955 0.10180624 13.20894955 0.10180624 18 3.5 C24.64366656 10.39134711 29.94249421 18.89414826 35.51171875 26.65625 C38.95072229 31.44363635 42.43640724 36.19539577 45.9375 40.9375 C46.51838379 41.72439209 47.09926758 42.51128418 47.69775391 43.32202148 C48.87623802 44.91781076 50.05494914 46.51343242 51.23388672 48.10888672 C54.15956103 52.06991162 57.07950306 56.03515717 60 60 C61.1666389 61.58335379 62.33330558 63.16668712 63.5 64.75 C65.83333333 67.91666667 68.16666667 71.08333333 70.5 74.25 C71.0779834 75.03439453 71.6559668 75.81878906 72.25146484 76.62695312 C73.41329315 78.20374329 74.5750773 79.78056599 75.73681641 81.35742188 C78.72714107 85.41613927 81.7183273 89.47421743 84.7109375 93.53125 C85.32453125 94.36333984 85.938125 95.19542969 86.5703125 96.05273438 C87.72366622 97.61675192 88.87728575 99.1805735 90.03125 100.74414062 C93.10554605 104.91374746 96.16357836 109.09474647 99.20947266 113.28515625 C100.27785873 114.75480835 100.27785873 114.75480835 101.36782837 116.25415039 C101.90644501 116.99528076 102.44506165 117.73641113 103 118.5 C102.99962297 117.92223722 102.99924595 117.34447443 102.9988575 116.74920368 C102.99173786 102.68561329 103.01765969 88.62240767 103.0802784 74.55894947 C103.10976535 67.75788673 103.12810181 60.95713636 103.12011719 54.15600586 C103.11244481 47.59409063 103.1359401 41.0327664 103.17855453 34.47095299 C103.18970758 31.96592326 103.19036628 29.46082439 103.18042374 26.95578957 C103.16829109 23.44998976 103.19326322 19.94628962 103.22705078 16.44067383 C103.21482986 15.40201675 103.20260895 14.36335968 103.1900177 13.29322815 C103.30925244 6.4400954 103.30925244 6.4400954 105.29498577 3.73754692 C108.46067678 0.98333472 111.0627588 -0.12810673 115.22265625 -0.09375 C116.17333984 -0.09117187 117.12402344 -0.08859375 118.10351562 -0.0859375 C119.56821289 -0.04339844 119.56821289 -0.04339844 121.0625 0 C122.04283203 -0.00257813 123.02316406 -0.00515625 124.03320312 -0.0078125 C130.48675916 0.07981216 134.3189201 0.8189201 139 5.5 C139.26006222 8.3870821 139.26006222 8.3870821 139.27415466 12.16072083 C139.27939134 12.85310575 139.28462802 13.54549067 139.29002339 14.25885695 C139.30508406 16.59035354 139.30572986 18.92163184 139.30639648 21.25317383 C139.31401399 22.92021559 139.32244078 24.58725382 139.33161926 26.25428772 C139.35361352 30.7915571 139.36236993 35.32875908 139.36744571 39.86607575 C139.37108394 42.69939304 139.37732124 45.53269252 139.3844471 48.36600304 C139.4089602 58.2466955 139.42199718 68.12733533 139.42553711 78.00805664 C139.42917226 87.2239799 139.45906132 96.43957007 139.50094169 105.65539151 C139.5356153 113.56203794 139.55108505 121.46857386 139.55178314 129.37529582 C139.55257707 134.10006077 139.56136792 138.82448681 139.58978081 143.54917336 C139.61591091 147.99390971 139.61819522 152.43802502 139.60212517 156.88280296 C139.60030653 158.51423875 139.60703881 160.14570982 139.62294388 161.77706909 C139.64333986 164.00489373 139.63289433 166.23053222 139.61473083 168.45832825 C139.61674216 169.7047601 139.61875349 170.95119196 139.62082577 172.23539448 C138.82677596 176.41089675 137.2915383 177.89512633 134 180.5 C130.94140625 181.13110352 130.94140625 181.13110352 127.5625 181.12890625 C126.33789062 181.13083984 125.11328125 181.13277344 123.8515625 181.13476562 C122.58054687 181.11091797 121.30953125 181.08707031 120 181.0625 C118.72898437 181.07345703 117.45796875 181.08441406 116.1484375 181.09570312 C105.71478341 181.01333217 105.71478341 181.01333217 101 176.5 C99.45484307 174.52916478 97.98159194 172.50096298 96.5625 170.4375 C95.68644829 169.1799067 94.80875138 167.92345837 93.9296875 166.66796875 C93.46014648 165.99556152 92.99060547 165.3231543 92.50683594 164.63037109 C89.79296409 160.79348747 86.98549307 157.02573043 84.1875 153.25 C79.58637393 147.02729327 75.0205814 140.78146141 70.5 134.5 C66.03984573 128.30341871 61.53750831 122.14016025 57 116 C51.91794922 109.1229644 46.88997203 102.20966917 41.89453125 95.26953125 C37.96607984 89.81916162 33.99294732 84.40325984 30 79 C24.91794922 72.1229644 19.88997203 65.20966917 14.89453125 58.26953125 C10.39525035 52.02718753 5.83328827 45.83254784 1.2590332 39.64501953 C-3.54431861 33.13942725 -8.28620807 26.59081709 -13.00195312 20.02148438 C-13.51306641 19.31056641 -14.02417969 18.59964844 -14.55078125 17.8671875 C-15.00106689 17.23925293 -15.45135254 16.61131836 -15.9152832 15.96435547 C-16.92553162 14.52536593 -16.92553162 14.52536593 -18 13.5 C-18.68976378 6.6023622 -18.68976378 6.6023622 -16.2890625 2.765625 C-11.14117346 -0.78042683 -6.0963649 -0.14706143 0 0 Z " fill="#5F42B8" transform="translate(769,387.5)"/>
<path d="M0 0 C4.39466535 4.39466535 3.38331465 9.47240952 3.4375 15.375 C3.48100586 16.93154297 3.48100586 16.93154297 3.52539062 18.51953125 C3.57493979 24.48829998 3.517317 28.63968606 -0.875 33.125 C-4.01171875 34.77734375 -4.01171875 34.77734375 -7.5625 36.0625 C-21.28519841 41.42404234 -28.02785623 50.10114645 -34.578125 62.90234375 C-37.93571914 71.24576293 -38.18615399 79.26411344 -38.125 88.1875 C-38.13273437 89.31994141 -38.14046875 90.45238281 -38.1484375 91.61914062 C-38.11316955 106.75790964 -33.32624815 119.91205137 -23.0546875 131.109375 C-17.80994533 136.25440725 -12.03220331 139.32036842 -5.37158203 142.24804688 C-2.46055792 143.57373443 -0.13750063 144.84937434 2.078125 147.17578125 C3.71560189 151.78882248 3.55720591 156.26885364 3.5 161.125 C3.51160156 162.10984375 3.52320313 163.0946875 3.53515625 164.109375 C3.49831296 173.19738679 3.49831296 173.19738679 0.125 177.125 C-3.6246025 179.624735 -5.42085628 179.42564314 -9.875 179.125 C-24.07857979 175.72678962 -35.91492676 168.68632263 -46.875 159.125 C-47.48859375 158.59519531 -48.1021875 158.06539062 -48.734375 157.51953125 C-65.15806532 142.26358037 -73.98606775 118.45317582 -74.99951172 96.41772461 C-75.74061775 69.46402032 -70.82573976 43.57196338 -51.9375 23.125 C-49.96265834 21.07402434 -47.94082266 19.08405454 -45.875 17.125 C-45.07449219 16.36574219 -44.27398437 15.60648437 -43.44921875 14.82421875 C-34.36769004 6.96373592 -11.7732055 -7.6781775 0 0 Z " fill="#6044B8" transform="translate(436.875,390.875)"/>
<path d="M0 0 C1.49176758 -0.0309375 1.49176758 -0.0309375 3.01367188 -0.0625 C8.50460128 -0.0917265 12.63691155 0.0171214 17.3125 3.25 C19.73809717 6.88839576 19.56591674 8.58284969 19.57319641 12.91708374 C19.57893473 13.93856677 19.57893473 13.93856677 19.58478898 14.98068583 C19.59512603 17.2676381 19.59112555 19.55433964 19.5871582 21.84130859 C19.59150434 23.47894016 19.59668715 25.11656968 19.60264587 26.75419617 C19.61605883 31.20671441 19.61661192 35.6591479 19.61408257 40.11168242 C19.61301426 43.82693436 19.61789272 47.54216906 19.622688 51.25741732 C19.63379145 60.02221056 19.6342161 68.78696094 19.62817383 77.55175781 C19.62213436 86.59663847 19.63444243 95.64136356 19.6557439 104.68621767 C19.67335329 112.44851022 19.67936224 120.21075322 19.67610615 127.97306502 C19.67429185 132.61052847 19.67694396 137.24788099 19.69082069 141.88532639 C19.70338341 146.24706661 19.70146975 150.60856424 19.68840981 154.97030067 C19.68604095 156.5710858 19.68878979 158.17188792 19.69703293 159.77265358 C19.70747646 161.95836773 19.69941978 164.1432643 19.6867218 166.32894897 C19.68688954 167.55195898 19.68705729 168.77496899 19.68723011 170.0350399 C19.16312188 174.53157485 17.46897738 177.09352262 14.3125 180.25 C10.06205481 180.76385307 5.77794074 180.66683362 1.5 180.6875 C-0.28374023 180.73680664 -0.28374023 180.73680664 -2.10351562 180.78710938 C-3.25142578 180.79419922 -4.39933594 180.80128906 -5.58203125 180.80859375 C-7.15754761 180.82877563 -7.15754761 180.82877563 -8.76489258 180.84936523 C-12.78112261 180.02572103 -14.12098422 178.40667919 -16.6875 175.25 C-17.3167057 172.00939178 -17.3167057 172.00939178 -17.32241821 168.26647949 C-17.33021817 167.57561485 -17.33801812 166.8847502 -17.34605443 166.17295027 C-17.36595635 163.86410237 -17.35021907 161.5569062 -17.33447266 159.24804688 C-17.34124966 157.59040873 -17.35015326 155.93277811 -17.36102295 154.27516174 C-17.38381329 149.77714382 -17.37498119 145.27969944 -17.35912752 140.78167152 C-17.34646711 136.07411785 -17.35820903 131.36661322 -17.36605835 126.65905762 C-17.37515451 118.75357243 -17.36316791 110.84832082 -17.33935547 102.94287109 C-17.31214422 93.80352482 -17.32095841 84.66473625 -17.3484875 75.5254035 C-17.37117855 67.67810718 -17.37437868 59.83097874 -17.36129415 51.98366022 C-17.3534996 47.29699213 -17.3524581 42.61058617 -17.36897659 37.92393494 C-17.38342209 33.51766293 -17.37339858 29.11210981 -17.34450531 24.70591545 C-17.33789486 23.08901602 -17.33979155 21.47205608 -17.35081863 19.85518074 C-17.36448888 17.64714458 -17.34734558 15.44141003 -17.32241821 13.23352051 C-17.32053308 11.99835945 -17.31864796 10.76319839 -17.3167057 9.49060822 C-16.51763432 5.37513809 -14.84200814 3.90836849 -11.6875 1.25 C-9.28733668 -1.15016332 -3.22046673 0.01637872 0 0 Z " fill="#6144B8" transform="translate(597.6875,387.75)"/>
<path d="M0 0 C13.07188724 4.06740401 25.84171954 9.23348666 36.37890625 18.1875 C37.36890625 18.93 38.35890625 19.6725 39.37890625 20.4375 C49.32032775 28.95488004 60.06657684 44.67311178 61.87890625 57.8125 C61.37929017 61.18490856 60.7717094 62.81892726 58.28710938 65.15332031 C53.82256243 67.57294939 48.31324533 66.8500935 43.37890625 66.75 C42.20328125 66.76095703 41.02765625 66.77191406 39.81640625 66.78320312 C30.10076502 66.70039936 30.10076502 66.70039936 25.37890625 62.1875 C23.89453125 59.70703125 23.89453125 59.70703125 22.62890625 57 C17.60491456 47.4005873 10.50063129 41.02430666 0.37890625 37.1875 C-3.0125743 36.14873796 -6.40186913 35.16553545 -9.8359375 34.27734375 C-13.08173689 33.00724834 -13.87433267 32.15582954 -15.62109375 29.1875 C-16.27262859 24.87827886 -16.13053685 20.54077023 -16.12109375 16.1875 C-16.14945312 14.99898438 -16.1778125 13.81046875 -16.20703125 12.5859375 C-16.20960938 11.44382812 -16.2121875 10.30171875 -16.21484375 9.125 C-16.22193359 8.08214844 -16.22902344 7.03929687 -16.23632812 5.96484375 C-15.62109375 3.1875 -15.62109375 3.1875 -13.29321289 0.83984375 C-8.78604822 -1.9472271 -5.00682504 -1.12343 0 0 Z " fill="#6043B8" transform="translate(470.62109375,388.8125)"/>
<path d="M0 0 C1.23234375 -0.03287109 2.4646875 -0.06574219 3.734375 -0.09960938 C12.678055 -0.15296105 12.678055 -0.15296105 16.9765625 2.52734375 C19.09295216 6.26362407 19.23991079 8.18738131 18.625 12.4375 C17.69755028 15.16046975 16.47137183 17.64902489 15.125 20.1875 C14.76188721 20.88705811 14.39877441 21.58661621 14.0246582 22.30737305 C3.42761 42.24465816 -12.16702619 55.72550952 -33.375 63.4375 C-34.22835938 63.7571875 -35.08171875 64.076875 -35.9609375 64.40625 C-41.86007257 66.41604996 -48.1804929 67.6942131 -54.375 66.4375 C-57.10243786 64.29938747 -58.24714609 63.10315955 -58.90844727 59.66015625 C-58.94400097 56.25121435 -58.96892879 52.84659919 -58.9375 49.4375 C-58.96134766 48.24898437 -58.98519531 47.06046875 -59.00976562 45.8359375 C-59.00783203 44.69382812 -59.00589844 43.55171875 -59.00390625 42.375 C-59.00463135 41.33214844 -59.00535645 40.28929687 -59.00610352 39.21484375 C-58.15544272 35.47127811 -56.54873708 34.46960504 -53.375 32.4375 C-50.39453125 31.3828125 -50.39453125 31.3828125 -47.1875 30.5625 C-36.45964934 27.44718066 -27.16834973 22.03051534 -21.49609375 12.171875 C-20.26380442 9.87826261 -19.10432073 7.56782643 -17.953125 5.23046875 C-14.082395 -1.61995687 -6.95449837 0.03253144 0 0 Z " fill="#6043B8" transform="translate(513.375,503.5625)"/>
<path d="M0 0 C1.28813599 -0.01260864 2.57627197 -0.02521729 3.90344238 -0.03820801 C5.30607653 -0.03104819 6.70870569 -0.0228442 8.11132812 -0.01367188 C9.55334739 -0.01636743 10.99536488 -0.02025038 12.43737793 -0.02526855 C15.45696345 -0.03116076 18.47607511 -0.02261036 21.49560547 -0.00390625 C25.36294015 0.01888407 29.22916448 0.00575937 33.09645844 -0.01819611 C36.07338807 -0.03266213 39.05005518 -0.02804461 42.0269928 -0.01768494 C43.45272453 -0.01501983 44.87848022 -0.01827989 46.30418396 -0.02760315 C48.29783665 -0.03777985 50.29157309 -0.01951376 52.28515625 0 C53.418927 0.00318237 54.55269775 0.00636475 55.7208252 0.00964355 C59.28582904 0.62940462 60.46687111 1.67719132 62.64257812 4.51757812 C63.16015625 7.18725586 63.16015625 7.18725586 63.17382812 10.20117188 C63.1815625 11.83989258 63.1815625 11.83989258 63.18945312 13.51171875 C63.17398438 14.64802734 63.15851563 15.78433594 63.14257812 16.95507812 C63.16578125 18.65374023 63.16578125 18.65374023 63.18945312 20.38671875 C63.18429687 21.48048828 63.17914062 22.57425781 63.17382812 23.70117188 C63.16931641 24.69689209 63.16480469 25.6926123 63.16015625 26.71850586 C62.48623515 30.36308388 61.25577948 31.90382038 58.64257812 34.51757812 C55.7208252 35.15249634 55.7208252 35.15249634 52.28515625 35.16455078 C50.99702026 35.18031158 49.70888428 35.19607239 48.38171387 35.21231079 C46.97907658 35.203361 45.5764471 35.193106 44.17382812 35.18164062 C42.73180736 35.18501007 41.28978937 35.18986377 39.84777832 35.19613647 C36.82809362 35.20350198 33.80914929 35.19281426 30.78955078 35.16943359 C26.92200036 35.1409441 23.0561846 35.15735007 19.18869781 35.18729591 C16.21172046 35.20537874 13.23515327 35.19960678 10.25816345 35.18665695 C8.83243097 35.18332556 7.40666104 35.18740076 5.98097229 35.19905472 C3.98732227 35.21177558 1.99354139 35.18894247 0 35.16455078 C-1.13377075 35.16057281 -2.2675415 35.15659485 -3.43566895 35.15249634 C-6.35742188 34.51757812 -6.35742188 34.51757812 -8.72241211 32.15208435 C-10.63191542 29.07528415 -10.87237111 27.2986932 -10.88867188 23.70117188 C-10.89382813 22.60740234 -10.89898438 21.51363281 -10.90429688 20.38671875 C-10.88882813 19.25427734 -10.87335937 18.12183594 -10.85742188 16.95507812 C-10.87289062 15.81876953 -10.88835938 14.68246094 -10.90429688 13.51171875 C-10.89914062 12.41923828 -10.89398437 11.32675781 -10.88867188 10.20117188 C-10.88416016 9.20657959 -10.87964844 8.2119873 -10.875 7.18725586 C-9.68588577 1.05378222 -5.69401786 0.0159825 0 0 Z " fill="#5F42B8" transform="translate(642.357421875,533.482421875)"/>
<path d="M0 0 C0.99902344 0.00257813 1.99804688 0.00515625 3.02734375 0.0078125 C4.05988281 0.03617187 5.09242188 0.06453125 6.15625 0.09375 C7.70505859 0.08988281 7.70505859 0.08988281 9.28515625 0.0859375 C18.75966113 0.20818918 18.75966113 0.20818918 22.65625 3.59375 C24.81758226 6.83574839 24.9175103 7.78538341 24.96264648 11.53662109 C24.97863388 12.54131439 24.99462128 13.54600769 25.01109314 14.58114624 C25.01645584 15.66553986 25.02181854 16.74993347 25.02734375 17.8671875 C25.04088646 19.54103012 25.04088646 19.54103012 25.05470276 21.24868774 C25.0692187 23.61075146 25.07809532 25.9728555 25.08178711 28.33496094 C25.09368154 31.94795532 25.14285543 35.55924129 25.19335938 39.171875 C25.20282358 41.46613749 25.21005862 43.76041048 25.21484375 46.0546875 C25.23437607 47.13503265 25.25390839 48.21537781 25.27403259 49.32846069 C25.2453833 54.0941182 25.22186702 56.76023608 22.49853516 60.7734375 C19.24029599 62.8601435 17.4656449 63.23691658 13.62109375 63.2578125 C12.48220703 63.26425781 11.34332031 63.27070312 10.16992188 63.27734375 C8.98978516 63.25800781 7.80964844 63.23867188 6.59375 63.21875 C4.81774414 63.24775391 4.81774414 63.24775391 3.00585938 63.27734375 C1.86826172 63.27089844 0.73066406 63.26445313 -0.44140625 63.2578125 C-1.47789307 63.25217285 -2.51437988 63.2465332 -3.58227539 63.24072266 C-6.34375 62.59375 -6.34375 62.59375 -8.67724609 60.78271484 C-11.21837659 55.92009449 -10.93464129 51.31652443 -10.91015625 45.90625 C-10.91635483 44.77098877 -10.92255341 43.63572754 -10.92893982 42.46606445 C-10.93603514 40.06885637 -10.9328691 37.67159899 -10.92016602 35.27441406 C-10.90629821 31.60650019 -10.94038219 27.94113607 -10.97851562 24.2734375 C-10.9794668 21.94270771 -10.97760807 19.61197472 -10.97265625 17.28125 C-10.98591446 16.18530518 -10.99917267 15.08936035 -11.01283264 13.96020508 C-10.92070855 6.42919978 -10.92070855 6.42919978 -8.13842773 2.40039062 C-5.08931336 0.4292675 -3.59198843 -0.02812233 0 0 Z " fill="#5F43B8" transform="translate(761.34375,505.40625)"/>
</svg>
