<?xml version="1.0" standalone="no"?>
<!DOCTYPE svg PUBLIC "-//W3C//DTD SVG 20010904//EN"
 "http://www.w3.org/TR/2001/REC-SVG-20010904/DTD/svg10.dtd">
<svg version="1.0" xmlns="http://www.w3.org/2000/svg"
 width="1102.000000pt" height="664.000000pt" viewBox="0 0 1102.000000 664.000000"
 preserveAspectRatio="xMidYMid meet">

<g transform="translate(0.000000,664.000000) scale(0.100000,-0.100000)"
fill="#000000" stroke="none">
<path d="M4767 6125 c-241 -100 -460 -320 -543 -545 -50 -137 -57 -180 -59
-375 l-3 -190 -82 -50 c-46 -28 -82 -55 -81 -60 2 -6 35 -39 74 -74 40 -36 71
-67 70 -70 -1 -3 -34 -17 -73 -31 -39 -14 -71 -30 -70 -36 1 -5 35 -49 76 -98
86 -102 88 -95 -28 -132 -32 -10 -58 -22 -58 -28 0 -19 38 -74 62 -90 13 -9
102 -42 198 -75 96 -32 210 -73 252 -90 160 -63 705 -428 772 -516 15 -19 38
-60 51 -90 18 -39 31 -56 49 -61 35 -8 43 -1 77 71 41 88 119 157 351 312 383
256 409 269 723 375 186 62 214 78 245 139 l19 36 -47 12 c-26 6 -64 20 -85
29 l-38 17 80 94 c45 52 78 98 74 101 -5 4 -37 17 -73 30 -36 13 -67 25 -70
28 -3 2 31 37 74 77 l79 73 -46 28 c-25 16 -66 41 -89 55 l-44 26 8 94 c18
217 -30 437 -133 613 -57 97 -219 257 -328 324 -78 48 -217 111 -224 101 -2
-2 1 -78 6 -169 10 -191 3 -556 -13 -650 -10 -60 -37 -140 -48 -140 -2 0 -30
15 -61 34 -231 139 -421 174 -611 111 -94 -30 -183 -72 -248 -117 -39 -27 -46
-29 -59 -15 -53 53 -77 493 -47 875 7 83 7 83 -79 47z"/>
<path d="M1755 2750 c-54 -17 -65 -43 -65 -158 0 -119 12 -154 61 -171 21 -7
170 -11 450 -11 359 0 425 -2 466 -16 108 -37 165 -117 167 -233 0 -79 -27
-137 -85 -177 -75 -52 -99 -54 -543 -54 -247 0 -426 -4 -447 -10 -71 -20 -70
-10 -67 -484 l3 -424 24 -26 c24 -25 28 -26 148 -26 118 0 125 1 148 25 l25
24 0 286 0 285 223 0 222 -1 180 -287 c99 -158 190 -297 202 -310 21 -21 30
-22 163 -22 136 0 142 1 165 25 50 49 50 50 -191 416 l-163 248 72 38 c185 96
270 251 270 488 -1 178 -54 308 -172 417 -71 66 -156 112 -258 140 -73 19
-107 21 -523 24 -261 2 -457 -1 -475 -6z"/>
<path d="M4595 2749 c-40 -23 -45 -39 -45 -160 0 -136 12 -161 83 -179 143
-36 251 -117 313 -236 17 -32 42 -65 55 -71 15 -8 68 -13 142 -13 118 0 119 0
148 29 36 37 36 51 0 138 -73 177 -215 330 -387 416 -47 24 -190 68 -259 81
-16 3 -39 1 -50 -5z"/>
<path d="M5873 2749 c-66 -20 -64 21 -61 -903 l3 -834 24 -26 c24 -25 28 -26
148 -26 118 0 125 1 148 25 l25 24 0 849 0 849 -26 24 c-23 21 -35 24 -127 26
-56 1 -117 -2 -134 -8z"/>
<path d="M7565 2750 c-38 -12 -55 -35 -55 -76 0 -30 212 -327 1112 -1554 54
-74 108 -140 121 -147 30 -17 276 -17 298 0 39 30 39 31 39 892 l0 836 -24 24
c-31 31 -75 38 -188 33 -84 -4 -93 -6 -114 -32 l-24 -27 0 -567 c0 -554 0
-566 -19 -547 -10 11 -200 268 -421 570 -222 303 -414 561 -427 575 -22 24
-30 25 -146 27 -67 1 -135 -2 -152 -7z"/>
<path d="M4220 2726 c-294 -88 -500 -321 -576 -651 -15 -61 -19 -117 -18 -240
1 -138 5 -173 27 -259 78 -294 271 -510 540 -604 92 -32 140 -32 172 -2 24 23
25 29 25 150 0 147 -6 160 -79 185 -120 39 -226 138 -281 260 -102 226 -67
521 82 690 49 56 144 120 191 130 18 4 44 19 60 33 27 25 27 28 27 148 0 67
-3 130 -6 139 -7 17 -55 45 -76 44 -7 0 -47 -10 -88 -23z"/>
<path d="M4993 1585 c-12 -9 -36 -42 -54 -74 -61 -116 -150 -186 -281 -222
-104 -29 -108 -35 -108 -183 0 -115 1 -124 23 -144 40 -38 139 -23 300 44 198
83 371 271 437 477 15 47 1 89 -36 106 -39 17 -255 14 -281 -4z"/>
<path d="M7573 1573 c-13 -2 -32 -16 -43 -30 -19 -24 -20 -40 -20 -280 l0
-254 25 -24 c23 -24 30 -25 148 -25 120 0 124 1 148 26 24 25 24 27 27 268 2
151 -1 252 -7 270 -16 40 -64 56 -168 55 -48 -1 -98 -4 -110 -6z"/>
<path d="M6345 1275 c-24 -23 -25 -30 -25 -143 0 -113 1 -121 25 -146 l24 -26
316 0 316 0 24 25 c24 23 25 30 25 145 0 115 -1 122 -25 145 l-24 25 -316 0
-316 0 -24 -25z"/>
</g>
</svg>
